# Blender 4.5.11 LTS
# www.blender.org
o bunny
v -7.320497 7.266253 -14.134050
v -0.170794 3.827481 -17.269768
v 0.488050 2.352202 -12.774196
v 0.583883 10.516842 -20.030832
v 5.863270 3.155272 -13.137830
v 4.579233 3.689116 -13.170856
v 2.071687 8.754323 -19.378853
v -6.891033 2.055403 -17.325621
v -1.837030 9.784020 -18.152168
v -4.442132 7.738677 -18.991615
v -6.086083 9.301120 -20.893864
v 5.307728 2.617492 -12.724382
v -1.258050 9.688396 -17.355556
v 4.949796 -7.318359 -11.838322
v -3.790498 -6.818842 -11.622837
v -2.551455 -7.276262 -11.692644
v -1.000391 4.082182 -17.551037
v -2.783080 8.440501 -16.546413
v 0.627953 8.094877 -17.866737
v -3.488966 7.810226 -15.991655
v -3.062090 -6.454984 -11.732254
v -2.333876 -6.407518 -12.007259
v -0.201997 -7.283404 -10.821754
v 3.521643 -6.244256 -11.607996
v -1.856416 9.009086 -18.729427
v -3.636297 -6.144864 -12.017269
v -1.312206 -6.307680 -12.291385
v -0.057861 -6.829041 -10.720724
v 0.791618 -6.422959 -10.720055
v -1.158087 9.409936 -17.301487
v 9.823849 -2.880390 -14.650745
v -2.659170 -5.668024 -12.675420
v -2.077020 -5.554345 -12.554901
v 0.690501 -5.918316 -10.999689
v 2.462361 -6.061691 -11.446617
v 7.786638 2.632383 -14.689034
v 0.117563 10.996529 -18.519827
v 1.750167 -5.810622 -11.417597
v 4.453399 -6.060882 -11.405304
v 4.622610 -5.532392 -11.040503
v -0.991708 2.128446 -12.935699
v -6.516165 5.460279 -11.227636
v 7.283563 -6.912051 -14.072678
v 0.101547 -5.841475 -11.299768
v 3.588081 -5.416666 -10.749404
v 0.764664 -5.557083 -11.626236
v 1.301451 -5.582774 -11.538033
v -4.415057 8.563343 -20.484398
v 7.802577 -5.856201 -13.542521
v -7.319842 3.880048 -17.791471
v -4.641617 7.421521 -17.750093
v -0.688445 -5.500920 -12.651663
v 1.396429 -4.932614 -11.134420
v -5.991409 4.921913 -10.927477
v 8.418330 -5.748590 -13.440699
v 6.344584 3.897404 -14.655329
v -6.260711 6.739784 -17.982586
v -7.376324 3.236889 -17.598171
v -1.175827 3.694948 -14.218149
v -2.349488 -4.994246 -12.728974
v -1.473716 -5.364854 -12.510098
v 0.909016 -5.388823 -11.734376
v 2.247834 -5.065165 -10.896317
v 3.420002 -4.967502 -10.563366
v 4.915666 -4.489830 -10.879271
v -6.558798 4.418263 -10.795960
v -3.959602 6.984520 -13.044112
v -4.215248 7.397112 -13.211683
v -0.379810 3.972262 -15.323236
v -5.159159 8.310555 -18.543980
v -1.900882 4.218351 -15.344053
v -0.364593 -5.013504 -12.831617
v 0.906884 -4.256001 -11.541862
v -6.853539 4.000682 -10.986609
v -0.347325 10.432012 -17.982384
v 9.261577 -5.029294 -13.358711
v -4.893145 7.349480 -13.038589
v -2.195308 -4.047965 -12.531372
v -6.436215 9.888796 -23.055763
v 3.364863 -4.497382 -10.600376
v 4.186628 -4.685952 -10.734018
v 8.240041 -4.950860 -13.494953
v 2.275468 -4.256542 -10.513142
v -8.001500 2.614605 -12.645736
v 3.893404 -4.173854 -10.383510
v 1.760688 3.329765 -13.007354
v 5.354851 3.917735 -13.730791
v -5.671741 7.839225 -14.863292
v 0.049663 -3.688889 -12.642313
v -0.592321 3.013526 -13.570327
v 0.390481 3.501673 -14.117286
v 2.885467 3.410759 -12.826911
v 8.635758 -4.204598 -13.695166
v 9.556393 -4.064998 -13.634571
v 10.128678 -4.438761 -13.736992
v -1.189505 -3.598064 -12.217949
v 1.571036 -3.733980 -10.739634
v 3.017475 0.679652 -11.205077
v -3.144679 -4.281294 -14.054457
v -2.901912 -3.904506 -13.267545
v -2.036104 -3.113379 -12.225861
v 4.775302 -3.620972 -10.579392
v 8.817972 1.117247 -17.025921
v 8.474001 1.231480 -14.209555
v -4.277500 6.758686 -17.981388
v 2.774281 -3.211401 -10.349997
v 3.694013 -3.120655 -10.355053
v 4.569666 4.362666 -14.114805
v -5.585193 -3.764171 -15.099175
v 9.028558 -3.251952 -14.203241
v 9.002693 -1.206053 -14.054256
v 5.049630 4.443889 -14.597659
v -2.180142 4.367722 -17.277069
v -0.453759 -0.672880 -20.655046
v 1.727288 -2.418481 -10.410564
v 4.528681 -2.481143 -10.400949
v 9.715084 -3.400883 -14.088684
v 10.329498 -3.713881 -14.001302
v -4.110960 3.365730 -18.586382
v 2.226659 0.704995 -20.544670
v -7.708885 0.730498 -15.252355
v 9.217884 -3.057520 -14.546981
v 10.531597 -3.103269 -14.513498
v 3.176421 4.363758 -14.033919
v -5.711586 3.125773 -10.753735
v -5.928771 6.582466 -12.036913
v -3.703759 7.359288 -17.560133
v 7.141015 3.242020 -14.444157
v 2.245394 4.481896 -16.766800
v -1.945002 -0.289267 -20.312243
v -0.285795 -1.916483 -12.197745
v 2.910382 -2.738615 -10.107828
v 0.442390 -0.096695 -21.349865
v 1.271937 2.397438 -12.508027
v -7.061941 1.688942 -14.370424
v -5.669452 9.258197 -20.271507
v -2.505107 -2.389051 -12.080990
v -0.707284 -2.104766 -12.217155
v 3.295778 -2.323191 -10.069633
v 8.726097 -0.633780 -18.695185
v 8.111601 2.111810 -17.288313
v -3.329454 -2.380393 -12.127884
v -1.572900 -2.076398 -12.054358
v 2.445518 -1.885230 -10.161077
v 5.213704 -0.380259 -10.839905
v -5.614269 0.403848 -19.292027
v 1.171320 -2.007575 -10.379549
v 3.890644 -1.891994 -10.321522
v -4.221984 8.054717 -20.420908
v -5.411414 5.802221 -11.553888
v 2.010769 0.282697 -10.767530
v -3.447982 -1.685097 -11.826986
v -1.751277 -1.230390 -12.092291
v 1.576324 -1.034178 -10.269690
v 2.954818 -1.805235 -10.172855
v 8.420710 1.772073 -15.151738
v 4.028541 4.719612 -15.398445
v -8.168444 2.661651 -15.197391
v -4.142873 -2.493023 -12.270042
v -2.409499 -1.303001 -11.871096
v -1.179018 -1.390480 -11.953838
v -0.619356 -1.065164 -12.119373
v 4.935964 -1.513593 -10.622065
v -6.175398 3.866328 -10.783731
v 0.414679 7.818461 -18.116405
v 0.401499 -1.663751 -10.717527
v 4.351723 -1.028767 -10.316545
v -4.629501 -1.218994 -11.898108
v -3.852429 -1.491389 -11.932476
v -7.322377 1.785109 -15.165634
v -7.670340 0.582809 -16.427139
v 0.634051 -1.190167 -10.501617
v 1.299529 -1.397635 -10.204861
v 3.827802 2.480638 -12.244098
v -4.520725 7.790330 -14.506227
v -0.230315 -0.764695 -11.919043
v -4.953111 2.952384 -10.949246
v -0.957823 10.343158 -18.203571
v -5.100102 3.591007 -10.824709
v 9.273815 -0.349354 -16.786869
v -2.845118 -0.940843 -11.718289
v 1.810514 -0.277937 -10.397108
v -2.666181 3.052420 -13.495842
v -3.602769 7.698230 -15.655667
v -4.195437 -0.338255 -11.743667
v -3.279269 -0.370908 -11.824074
v 4.523184 4.710831 -16.178238
v -5.866801 2.670937 -10.939641
v 5.582095 0.267398 -11.419741
v -7.106534 -0.532976 -17.988279
v 2.785919 -0.491247 -10.306403
v -1.315640 -0.551902 -11.999201
v -1.000970 -0.196523 -11.888807
v -5.159202 7.718832 -17.345629
v 3.487648 0.120368 -10.579515
v -5.014822 0.228328 -12.149590
v -2.653254 0.162905 -11.907714
v -1.736970 0.370561 -12.166492
v 2.466186 9.619481 -20.521978
v 0.147005 -0.145266 -11.803324
v -4.086382 1.030327 -12.155380
v 0.673421 0.365976 -11.809242
v -8.395294 3.744000 -14.649942
v 6.375416 0.399140 -11.632822
v -5.242517 9.295386 -20.464249
v -2.030443 1.431641 -12.298670
v -1.509280 1.131238 -12.408675
v -0.392266 0.445385 -11.864630
v -0.150562 0.791564 -12.019876
v -7.500258 2.151881 -14.933714
v 4.398830 0.708112 -11.453062
v 5.121874 1.046485 -11.560495
v 0.232419 3.905201 -15.301530
v -2.496112 0.803449 -12.139332
v 1.211901 1.562387 -12.126439
v 1.760416 0.841861 -11.917831
v -5.473857 -1.791768 -12.508000
v -5.943434 1.046739 -18.874451
v -6.638203 6.967025 -12.857361
v -6.000497 1.160931 -12.914906
v -5.550796 1.398979 -12.736347
v 3.423933 0.924500 -11.885380
v 5.905879 1.153784 -11.836185
v -0.104420 3.945606 -16.407061
v -3.492148 1.488053 -12.390714
v 2.570311 1.112325 -11.957598
v 2.410912 1.703509 -11.965038
v 7.462142 2.576461 -13.861217
v -2.912980 2.083864 -12.736212
v 5.766288 1.670756 -12.251529
v 4.600080 1.629459 -12.275160
v -3.427033 2.583221 -13.042297
v -4.717953 1.982540 -12.722929
v 2.728280 1.929856 -20.253981
v 0.023913 0.057541 -20.626270
v -6.751902 -0.196016 -18.448763
v -2.283120 8.231128 -16.527626
v -3.174251 0.519398 -20.220720
v -5.693761 -1.210972 -19.447968
v -5.748287 5.508044 -18.335951
v 1.003163 9.535846 -20.037924
v -3.327270 6.996286 -17.743788
v 5.721739 -7.321466 -12.172415
v 6.164334 3.310842 -13.376412
v 0.515175 -7.240277 -10.612589
v 1.932017 -7.320320 -11.092567
v 6.128224 -6.459770 -12.122507
v -4.587756 6.514741 -12.531961
v -0.313761 7.549366 -18.209087
v 3.414090 2.211406 -19.987705
v -3.563457 -7.286288 -11.581397
v 2.052500 9.695542 -19.872276
v 5.003170 -6.261121 -11.815770
v 6.130481 -7.072053 -12.344962
v -4.426449 -0.350275 -19.858932
v -1.139066 -0.555740 -20.475485
v -3.517204 3.785658 -12.492794
v 7.161186 -6.407485 -13.412973
v -1.945140 7.949286 -16.734962
v 5.680665 -5.992390 -12.043968
v -4.399920 1.194198 -19.677166
v -0.682062 8.346938 -19.165377
v -6.822259 -2.343805 -15.380081
v -4.658189 3.687979 -11.262682
v 6.910953 -6.112307 -12.741765
v 8.937309 -5.909710 -13.559711
v 9.901040 -6.052997 -14.661159
v -0.550034 7.515525 -17.500406
v 7.029116 -0.237612 -11.857943
v -4.145072 4.453762 -12.374482
v -0.850715 8.135887 -17.049355
v -1.348832 8.470992 -17.336584
v 0.699108 11.174490 -18.928251
v -2.631398 7.029386 -16.085005
v 7.485568 -5.180862 -12.812735
v -5.010880 2.427992 -11.505177
v 1.583170 8.355662 -18.872795
v -4.590406 9.653171 -23.237701
v -1.871259 6.875713 -16.874542
v -0.645979 9.132370 -18.065809
v 5.373256 -5.117826 -11.299158
v 6.082010 -5.014297 -11.554079
v 6.622635 -5.253501 -12.268105
v 10.499927 -5.014185 -14.288570
v -2.374885 3.997961 -14.087636
v -0.043029 -0.789919 -21.678032
v 0.612464 8.431726 -17.926910
v -3.460746 7.318320 -13.887399
v -1.734468 7.760704 -16.650888
v 1.384939 11.642385 -19.968342
v -4.148387 3.470510 -12.087086
v 10.979156 -4.688196 -14.989914
v 0.103994 8.197714 -17.452768
v 7.651393 -4.316293 -12.482887
v -2.740477 4.326894 -13.507514
v 8.527176 0.166559 -13.575416
v 6.109979 -4.352626 -11.400703
v 10.852123 -3.953602 -14.458593
v -3.371377 6.163480 -13.786065
v -3.274846 5.504140 -13.685295
v 8.209065 -3.752027 -12.871818
v 2.038531 9.123344 -19.383385
v 1.227986 10.784189 -19.691484
v -4.338351 5.482251 -12.894956
v 6.084517 -3.795737 -11.408739
v -4.607080 4.885902 -12.225082
v 7.866517 0.501737 -12.837492
v 6.879254 -3.044549 -11.974993
v 7.876247 -2.889241 -12.538074
v 1.289899 8.482054 -18.355337
v 8.935193 -0.357974 -18.088625
v 6.781174 -1.985750 -11.466475
v 11.030258 -3.566862 -14.886889
v 8.152264 -1.312099 -19.567171
v 8.153497 0.012496 -18.949228
v -4.148462 6.304090 -12.820503
v 5.286622 -2.310040 -10.654263
v 1.811180 10.343290 -20.057590
v -4.372788 2.453234 -12.654577
v 6.962678 0.701504 -12.199982
v 7.415984 -2.074756 -11.998024
v -3.045196 7.047122 -15.259758
v -7.695024 5.382332 -14.208121
v -7.938921 5.148287 -15.209702
v 5.660735 -2.046691 -10.728107
v -2.900731 6.387413 -15.687923
v 7.064919 2.147740 -13.064013
v 8.274655 -1.229123 -12.850839
v 9.387956 -2.530518 -15.194720
v -2.419630 4.706950 -14.463431
v 6.232070 -1.696067 -11.095698
v -0.143810 10.327913 -18.172529
v 5.718697 -0.863897 -11.110229
v 7.348214 0.969300 -12.650896
v 7.764474 -0.604319 -12.232067
v -6.630929 2.127369 -11.838680
v -4.312541 8.838574 -24.440479
v -2.688174 6.275702 -16.372694
v -8.115479 3.333627 -13.775270
v -6.150153 7.924419 -18.792881
v -8.219609 3.335307 -12.796819
v -3.013447 7.358672 -15.858445
v -6.035875 7.100199 -19.819496
v 6.058080 -7.436449 -17.887810
v 5.633940 -7.464404 -19.429138
v 9.121516 -0.131978 -14.819750
v 8.426005 -6.853206 -17.385391
v 6.341380 -7.278132 -17.647720
v 9.497236 -6.569720 -16.040346
v 5.182899 -7.277435 -20.182911
v -8.131830 2.769256 -16.041395
v -4.229128 10.313348 -25.045521
v 2.124576 11.062538 -20.964638
v 9.754747 -6.103121 -17.231071
v 9.106840 -5.742833 -18.149586
v -4.459300 7.081536 -21.034147
v 2.286747 10.650553 -21.163902
v -6.321020 1.621175 -13.283800
v 10.265461 -5.886713 -16.594814
v 6.356541 -6.261617 -19.532639
v -2.474980 5.057308 -16.387861
v 6.659517 0.780657 -19.911547
v 6.030617 -6.359375 -20.147245
v 1.297994 2.673584 -19.570576
v 10.681019 -5.525746 -15.218325
v -6.684035 1.946460 -13.361129
v 7.153878 -6.103859 -18.324688
v 7.086668 -5.664886 -19.536085
v 5.940436 -5.926835 -20.249922
v 1.470306 0.543999 -20.554260
v -4.344773 9.079817 -23.219616
v -4.349296 6.758838 -19.027864
v 10.657248 -5.404347 -16.752617
v 10.063026 -5.112140 -17.832027
v -1.756584 -7.616209 -20.932581
v -5.093927 -7.349898 -18.186197
v 0.173879 3.527317 -18.308182
v 11.212451 -4.256793 -15.985987
v 6.815815 -5.476943 -20.052563
v -5.952027 -2.963045 -13.994102
v -4.352715 8.177123 -22.501511
v 7.806518 -4.874784 -18.815685
v 7.614905 -4.684880 -19.288601
v 1.361065 -0.033654 -21.789469
v -7.326151 1.908519 -16.320385
v 10.912351 -4.015918 -17.067667
v 6.410670 -4.717107 -20.704258
v 7.259340 -4.126087 -19.965641
v -6.868977 -1.845150 -14.013861
v 8.847725 -3.025778 -18.132290
v 8.493127 -3.301880 -18.803009
v -6.011113 7.161765 -18.945965
v 7.680463 -3.569188 -19.704451
v -6.768796 6.905054 -17.230928
v -5.733755 10.906574 -24.250013
v 11.160869 -3.306972 -15.779733
v -8.011321 4.364251 -13.415684
v -5.639256 6.798775 -21.098732
v -2.868405 5.455079 -17.320808
v -2.547006 5.301385 -15.400545
v 6.959174 -3.555770 -20.189507
v -4.880715 -4.090858 -14.839861
v -4.148102 -7.354078 -11.846407
v 10.893943 -2.889421 -15.488214
v -0.682087 3.645447 -18.280359
v -2.090569 4.115517 -18.167458
v -5.761836 9.037539 -22.658638
v 2.286992 9.333776 -20.468559
v -7.863504 2.868575 -16.761358
v -7.722656 5.539729 -13.638378
v -2.475201 6.345142 -17.031624
v -5.456506 -2.822525 -13.145089
v 7.418397 -2.694612 -20.012701
v 9.147301 -1.418614 -17.512325
v 4.924609 -0.479405 -21.355713
v 9.278755 -2.460428 -17.135567
v -7.129506 0.227155 -17.852348
v 8.812684 -1.853782 -18.293940
v 7.772779 -1.919957 -19.729610
v -7.948269 5.738115 -15.147101
v -5.671148 10.554203 -24.355766
v -2.735130 5.909427 -16.797153
v -6.046254 2.468728 -18.125257
v -1.190285 -6.273322 -20.715733
v -7.454352 5.264646 -17.078669
v -4.566545 10.758978 -24.775328
v -5.126074 10.938734 -24.403786
v -5.823541 7.518826 -13.461931
v 2.336117 4.450228 -14.598692
v -3.512481 7.504050 -14.193058
v -5.677855 10.825443 -23.897648
v -6.841839 7.615184 -15.013923
v -5.037717 10.027759 -23.086409
v -5.566521 8.157087 -18.147350
v 1.647247 11.549294 -20.614918
v -2.012404 3.662919 -14.339023
v -5.769084 7.687817 -17.116575
v -6.133206 10.471118 -23.358780
v -0.369221 3.314816 -14.024412
v -1.965847 4.465922 -16.304775
v -7.523337 5.906311 -16.189611
v -7.150476 7.184923 -16.633045
v -6.320400 8.194484 -20.189039
v -6.268314 -0.163347 -19.006208
v 0.427584 11.034199 -19.692223
v -4.063858 7.757612 -16.356684
v -7.740244 -0.363212 -15.006124
v 10.756320 -3.244740 -16.970442
v 7.556257 2.393435 -18.133507
v -7.995126 2.877708 -13.898551
v -5.735543 10.084142 -22.400753
v 7.613888 2.942241 -16.740606
v -5.597267 6.400837 -19.438942
v 10.456587 -2.741139 -16.422504
v -7.703982 6.328600 -13.468290
v 0.939525 11.585521 -19.433163
v 6.179479 3.885705 -17.371300
v 4.004083 0.591928 -11.219758
v 9.734882 -2.616357 -15.600534
v -4.459520 7.594611 -17.023247
v -6.837392 5.974876 -17.426607
v -8.010521 6.082829 -15.386851
v -7.691176 7.286437 -15.303992
v -4.844392 9.045430 -20.388060
v -6.335649 9.329296 -21.602518
v 10.410186 -2.654120 -15.266375
v 9.462862 -2.561351 -15.951293
v 4.744792 4.486853 -17.314440
v -6.842335 1.185095 -17.962229
v 6.640008 3.802002 -15.893825
v 5.553228 4.382894 -16.394424
v 3.205956 4.518495 -17.354445
v -8.372118 3.735796 -15.249392
v 0.785337 -0.217429 -10.898010
v -5.935982 7.921559 -18.106401
v -4.213407 -7.597762 -15.248585
v -4.471704 -7.472007 -14.515210
v -4.896286 -7.394946 -13.317829
v 5.989312 -0.301634 -20.556322
v -1.503227 8.433502 -18.986435
v -5.871444 4.139492 -18.517878
v -5.566653 -7.368878 -16.405369
v -4.617929 -7.316594 -15.271833
v -4.520389 -6.975592 -12.231201
v -4.758056 -7.095554 -14.045650
v -4.096116 -6.184651 -12.199965
v -1.443549 -7.138229 -12.063383
v -5.570330 -7.234324 -17.261595
v -5.428607 -6.737292 -16.593178
v -4.161743 -7.102345 -14.993685
v -0.857288 -6.933060 -11.408058
v -4.507113 -6.504999 -13.864120
v -7.287333 0.850030 -14.137502
v -6.738342 0.097092 -13.298624
v -5.082144 -6.458989 -17.400311
v -4.970685 -6.342727 -16.449713
v -0.602690 -6.341842 -11.372594
v 6.859161 -0.863585 -20.332241
v -6.263233 -1.277028 -12.849942
v -3.769906 -5.729099 -16.583401
v -2.481223 9.202715 -17.361946
v -3.491816 -5.763674 -12.684689
v -6.585458 3.068743 -11.246050
v -2.819754 -5.805290 -15.316304
v -5.678673 -0.199965 -12.287830
v -0.173363 -5.576183 -12.008371
v -7.610866 -0.151799 -14.467392
v -8.168351 3.392896 -12.189896
v -7.308083 6.111659 -12.422374
v -3.450404 -4.915460 -16.406746
v -2.768482 -5.214510 -15.462601
v -5.166224 -0.922775 -12.066225
v -2.789911 -5.209090 -13.250578
v 0.059664 -5.137769 -12.785995
v -7.516451 3.214575 -11.471400
v -7.128919 4.626935 -11.202304
v -7.861979 4.413507 -12.234495
v -2.950686 -4.829544 -15.460991
v -3.202523 -4.579155 -14.764530
v -3.009466 -5.051702 -14.252136
v -6.658049 -1.521314 -13.352311
v 0.895694 -2.836169 -10.861295
v -7.710202 2.685273 -11.890390
v 5.093078 1.353289 -19.967714
v -3.644254 -0.309636 -20.196354
v -4.020241 7.836556 -16.794254
v -5.883204 7.056421 -21.050982
v 0.284505 1.385319 -20.355742
v 2.231999 10.177867 -21.122299
v -5.832448 2.948257 -18.406586
v -2.096219 -6.865764 -20.047699
v -2.503479 -7.554804 -19.414135
v -4.021284 -6.705297 -14.628993
v -2.426812 9.122975 -18.158585
v -6.277361 10.373546 -23.744339
v -1.888086 -7.441682 -20.893982
v -4.799376 -6.685350 -18.049171
v -5.608143 7.027198 -22.505215
v -7.915089 4.737704 -16.542953
v -6.166667 7.492748 -17.753407
v -5.190237 9.975944 -24.499283
v -1.656946 3.627489 -18.818707
v -2.984513 4.082760 -18.169271
v -1.620292 -6.204900 -20.138504
v -5.395410 7.921119 -23.189445
v -3.008324 -6.136801 -15.128246
v -4.592669 -6.495801 -12.803215
v -4.716126 -6.120857 -16.889896
v -3.381133 -5.823344 -13.994384
v -4.279763 -6.070657 -13.112965
v -3.881126 -5.964410 -17.740974
v -7.988896 6.747656 -14.734510
v -8.184720 4.640101 -14.783807
v -0.633784 -6.376833 -21.089512
v -1.196857 -5.666603 -18.948774
v -6.404604 7.464575 -16.961699
v -3.044862 -5.450766 -13.818181
v -3.144708 -5.674725 -13.184975
v -3.323844 -5.842586 -18.209637
v -6.410765 9.008863 -21.756760
v -0.348596 -5.693262 -20.323872
v 9.203810 -3.194786 -17.247843
v -3.152081 -5.251560 -18.280489
v -3.635905 -5.613431 -17.657013
v -4.842281 8.981697 -24.797478
v -0.136765 -5.401139 -20.239103
v 2.624799 2.396500 -19.885342
v -3.653377 -4.712976 -16.905910
v -0.573620 -5.347871 -18.854824
v -3.481721 -4.690253 -17.886179
v -0.030067 -4.343117 -20.735928
v -3.135515 -4.322649 -18.557182
v -3.857937 -4.543454 -16.608341
v 6.199111 3.152466 -18.600060
v -0.499334 -4.278712 -19.473803
v -0.527798 -4.703953 -19.013090
v -3.742131 -4.398883 -17.498070
v -4.148430 9.584928 -25.177845
v 1.916901 11.123882 -21.090506
v 5.261498 0.311653 -20.462629
v 4.284530 0.794404 -20.238140
v -2.433870 3.253308 -19.163834
v -1.096386 1.279518 -20.069088
v -4.562329 8.257475 -24.593212
v -6.154132 7.270962 -18.276388
v -5.021429 8.023169 -24.359159
v 9.841987 -4.090627 -17.910923
v 1.342028 3.677169 -18.284542
v 6.177438 1.537890 -19.575058
v 0.159545 -3.137033 -21.745047
v -5.141496 2.769640 -18.561012
v 5.677476 1.014645 -20.197960
v -5.924923 -3.220202 -17.310387
v -6.874366 -2.396340 -16.921623
v 3.823070 0.148524 -21.379333
v -6.384309 -2.458963 -18.068281
v -7.895354 6.965602 -15.708716
v 3.905001 2.879841 -19.640369
v -0.451916 -2.107824 -21.501966
v -5.514735 8.644120 -22.873997
v 4.375391 2.357496 -19.913307
v -0.968536 -2.133687 -19.907913
v -7.313114 -1.809590 -15.600567
v 7.190150 2.233254 -18.697796
v -6.491725 -1.460521 -18.511992
v -7.269121 -1.297572 -14.585573
v -4.338834 10.432668 -25.150940
v -6.953000 -1.427448 -17.874983
v 0.114876 -1.565027 -22.116562
v -0.786033 -1.326681 -20.583488
v -7.430023 -1.290942 -16.507277
v -5.787848 6.162083 -18.358391
v -6.627856 5.131321 -17.932888
v -7.502794 -0.890516 -17.022041
v 1.809645 1.688771 -20.193727
v -7.627790 6.530924 -16.219654
v -7.743488 -0.653258 -15.868215
v 0.469720 2.659557 -19.440271
v -1.484189 3.036342 -19.174469
v 4.321524 -0.798403 -21.626547
v 3.207548 -0.158486 -21.773338
v 8.799242 -3.999183 -17.821299
v 1.162986 11.627476 -20.136387
v 9.297580 -3.727183 -17.617294
v 4.890532 3.318395 -19.152433
v -0.793400 3.167470 -18.847803
v 2.552118 3.433670 -18.996159
v 1.355254 -0.743599 -22.270187
v -3.260433 2.238993 -19.661634
v -0.469816 -7.490749 -21.305508
v -4.062133 7.477736 -17.300442
v 4.647788 4.178995 -18.059399
v 0.361633 0.520195 -20.512129
v 7.923611 1.168153 -18.876097
v 9.643159 -2.824023 -16.708120
v 3.946834 0.593483 -20.521538
v -2.284656 -6.412736 -18.922337
v -2.063096 2.048898 -19.729492
v -4.186759 -6.794505 -18.476166
v -3.836432 -7.595734 -18.808083
v -3.959506 6.704877 -17.701941
v 7.638937 -0.238189 -19.680798
v -4.198411 5.798528 -18.236408
v 2.559882 3.984776 -18.394341
v -4.882802 10.874583 -24.938946
v 10.057997 -4.460326 -17.956308
v -1.013408 -7.482245 -21.314697
v -3.527328 5.979724 -17.783848
v 3.165455 -1.242992 -22.153210
v 5.710509 2.736290 -19.264828
v 1.291183 -6.217424 -20.961060
v 2.738889 0.428604 -21.177158
v -2.513871 -7.329309 -19.125397
v -2.532110 4.521160 -17.511274
v 3.669214 3.857080 -18.536621
v -1.079419 1.936897 -19.901320
v 10.611602 -2.993679 -16.848959
v 2.909973 -7.611292 -20.395470
v 2.692157 -7.355486 -20.594629
v 4.054656 -7.270846 -20.489588
v 0.626493 9.920383 -20.051851
v 3.220775 -6.434272 -20.640495
v -4.798116 5.773391 -18.452101
v 7.984439 -6.572224 -17.904083
v 6.946927 -6.749338 -18.006765
v -4.175508 0.319692 -19.817490
v 4.281546 -6.231912 -20.662289
v 2.537842 -6.075672 -21.151266
v 3.907469 -5.751805 -21.198399
v -0.664185 7.780451 -18.752346
v -2.788802 -6.056548 -18.596401
v 5.290905 -6.126956 -20.576427
v 5.110024 -5.648761 -20.873323
v 2.131445 -5.057756 -21.695431
v 0.914568 -5.965553 -20.990633
v 7.744605 -5.449867 -18.346458
v 0.332830 -5.799943 -20.749216
v -7.407336 2.206672 -12.284070
v -6.805530 4.154345 -18.083851
v 6.017953 -5.019032 -20.880018
v 4.267442 -5.424129 -21.135511
v -4.570823 10.104650 -25.184826
v 9.137656 -4.977766 -18.263439
v 4.506059 -4.998463 -21.297859
v 3.715276 -4.519177 -21.553219
v 3.083872 -5.294397 -21.435448
v 0.911204 -3.738652 -22.018581
v -3.214530 4.384296 -18.117819
v -1.924144 -4.857423 -18.900410
v 4.301386 -4.096888 -21.440414
v -0.954127 -5.214154 -18.783253
v -2.518619 -5.317801 -18.639820
v -5.410855 7.152226 -22.995174
v 8.277435 -4.860410 -18.246267
v 2.333597 -3.818766 -21.991943
v 6.181764 -3.995317 -20.843328
v 1.517753 -3.716391 -22.185732
v -2.346833 -3.827507 -19.165302
v -0.707764 -4.671287 -18.855101
v -1.369092 -4.384482 -18.955397
v -6.241499 -3.199213 -16.019258
v -3.126594 6.452038 -17.557013
v 4.021115 -3.604493 -21.669559
v -3.286064 1.356651 -19.902777
v 5.752685 -3.507516 -21.159603
v 4.786029 -3.273985 -21.432789
v -3.541424 -4.068228 -18.188904
v -4.633553 -3.944157 -17.841156
v 1.416006 8.783783 -19.649672
v -3.050057 -3.536406 -18.903368
v 4.679843 -2.819302 -21.585970
v 4.479845 -2.733147 -21.714710
v 2.728772 -2.373705 -22.150665
v 1.882316 -2.790609 -22.305717
v -6.527065 -2.876518 -15.338206
v -0.851217 -2.845856 -19.796461
v -2.004346 -2.839362 -19.656290
v -3.465649 -3.229825 -19.220482
v -2.613801 -2.691475 -19.491774
v -5.509808 -2.432315 -19.013527
v 6.641874 -2.300534 -20.660049
v 0.652209 -2.199677 -22.353844
v -1.321836 -1.977353 -19.925943
v -4.787385 -2.414905 -19.532934
v 1.372712 -1.529181 -22.397730
v -3.617759 -2.402861 -19.769896
v 4.533461 -1.881674 -21.690395
v -2.129608 -1.804130 -19.947811
v 3.618543 -1.487801 -21.951588
v -4.185673 -1.749382 -19.901337
v -0.988788 -1.624686 -20.229208
v -3.261090 -1.566746 -20.161047
v -5.553365 2.275646 -11.359876
v 0.362389 -0.662246 -21.944218
v -0.606667 -7.646612 -21.107468
v 4.689358 -7.549771 -19.542978
v -0.685228 -7.610625 -20.169228
v 3.708912 -7.511926 -19.543865
v 4.847697 -7.509612 -19.016125
v -1.496445 -7.559410 -19.193165
v 3.903000 -7.083680 -19.154396
v -0.524792 -7.172740 -19.647312
v 1.085962 -7.074933 -19.624548
v -2.607525 -7.628047 -19.113447
v -0.002671 -7.011765 -19.589565
v 4.150630 -6.954716 -18.629429
v 4.055552 -7.553117 -16.981073
v 4.324179 -7.138047 -18.224794
v 5.355595 -7.549150 -17.246635
v 6.540427 -7.495944 -17.039362
v 6.646374 -7.521314 -16.365435
v -1.465664 -7.311769 -18.388657
v 3.580459 -7.414398 -16.746071
v 5.418849 -7.297575 -17.039188
v 7.673768 -7.385384 -16.335695
v -4.831289 -7.621526 -18.303677
v -1.263639 -7.016408 -18.384651
v 4.719638 -7.329858 -16.893681
v -2.880225 -7.648983 -16.521568
v -1.667312 -7.603853 -17.700874
v 4.315278 -7.442770 -16.638988
v 6.164396 -7.341611 -16.357357
v 3.339696 -7.001107 -17.028952
v 3.676347 -7.506592 -15.420207
v 4.151233 -7.586002 -16.309271
v 7.619423 -7.358569 -15.479126
v -2.196190 -7.638863 -16.673542
v -0.645959 -7.057123 -17.530193
v -0.508748 -7.040998 -17.517078
v 0.025455 -7.071843 -16.474531
v 6.455025 -7.459743 -15.152629
v -1.168880 -7.631870 -16.888016
v 6.335093 -7.260207 -15.702944
v -5.332438 -7.604628 -17.651014
v 3.036333 -7.032935 -15.805259
v -0.881625 -7.600350 -16.066561
v -5.481256 -7.538656 -16.693659
v 4.552733 -7.479453 -15.179531
v 6.385949 -7.340926 -13.941319
v 8.327110 -6.806668 -14.429684
v -2.402160 -7.390440 -16.446108
v 5.206866 -7.537148 -14.763960
v 5.735100 -7.504220 -14.687436
v -1.409190 -7.292595 -16.104778
v -0.286138 -7.586216 -15.611398
v -3.099312 -3.615714 -12.985859
v -0.222659 -7.549483 -15.403955
v 3.378600 -7.034969 -14.823870
v -5.599558 1.862575 -12.515185
v -3.269832 -7.655181 -15.472641
v -3.171387 -7.637879 -15.702024
v -0.966968 -7.347343 -15.511059
v -0.104029 -7.409688 -15.278371
v 0.184795 -7.114845 -15.485343
v 4.595318 -7.480419 -14.333473
v 4.388689 -6.949310 -13.725831
v 4.768661 -7.158884 -13.639794
v 5.194275 -7.480349 -13.479328
v -7.535318 2.226642 -12.845465
v -7.118344 2.706481 -11.418550
v -1.087085 -7.421341 -14.562583
v 1.245001 -6.928683 -12.499193
v -7.733868 2.583906 -13.900038
v -6.020133 1.730067 -12.786750
v -1.290471 -7.405619 -14.392694
v -0.913018 -7.562989 -14.598755
v 5.201210 -7.446056 -12.146947
v -4.392314 -3.685009 -13.610698
v -1.745983 -7.627423 -14.070273
v 4.663146 -7.127165 -13.193388
v 4.606200 -7.473771 -12.895547
v 4.193118 -6.891882 -13.272703
v -5.445177 -3.941047 -16.498169
v -0.851352 -7.509701 -13.101650
v -0.371498 -7.057564 -13.383698
v 2.104707 -6.899703 -12.569497
v -0.708065 -7.542289 -12.813789
v -5.020195 -4.238622 -15.865227
v 1.641307 -7.459224 -11.243688
v -3.465252 -4.674808 -15.511358
v 0.594060 -6.934411 -12.617370
v 1.456810 -7.483244 -11.960865
v -3.088739 -7.483819 -11.889182
v 0.215745 -7.502746 -11.987471
v -1.408635 -7.417428 -12.132334
v -5.077626 7.010509 -22.442459
v -4.599654 -7.447543 -12.433676
v -0.078346 -7.449158 -11.096082
v -4.869586 7.497063 -23.699562
v -4.364293 8.778766 -24.957676
v -2.796933 6.230742 -17.283264
v -4.849040 6.438694 -19.917814
v -5.338496 5.930441 -18.529663
v -4.410109 6.192620 -18.407141
v -4.638154 7.514659 -22.569225
v -4.798723 6.065210 -18.662350
v -5.313353 6.246829 -19.295963
s 0
f 431 451 433
f 826 693 829
f 404 123 313
f 653 532 744
f 235 256 633
f 774 488 376
f 213 439 91
f 437 432 88
f 203 553 473
f 129 157 472
f 263 594 715
f 464 70 10
f 48 278 464
f 472 187 468
f 194 70 434
f 434 475 437
f 385 158 351
f 54 42 66
f 395 431 427
f 74 164 66
f 288 430 68
f 718 726 719
f 119 481 663
f 164 54 66
f 278 433 464
f 70 51 10
f 427 431 433
f 188 125 164
f 594 603 611
f 691 700 699
f 688 663 643
f 125 179 164
f 179 54 164
f 54 150 42
f 190 617 171
f 661 241 262
f 42 150 126
f 832 356 372
f 355 374 354
f 196 221 505
f 177 125 188
f 177 179 125
f 374 386 373
f 414 180 467
f 533 546 490
f 441 616 394
f 201 233 221
f 835 829 381
f 422 411 338
f 346 180 103
f 263 603 594
f 196 201 221
f 253 39 24
f 374 373 354
f 196 512 185
f 167 145 195
f 65 81 45
f 150 248 68
f 224 213 429
f 159 168 217
f 512 168 185
f 145 189 195
f 390 414 416
f 40 65 45
f 107 116 148
f 69 439 213
f 511 518 510
f 71 400 330
f 50 530 58
f 241 529 709
f 584 830 337
f 36 228 104
f 40 45 39
f 324 323 420
f 91 439 86
f 152 169 159
f 169 168 159
f 185 201 196
f 195 189 458
f 416 414 467
f 225 233 201
f 169 185 168
f 233 225 232
f 167 191 144
f 212 222 211
f 169 186 185
f 159 142 152
f 372 105 834
f 212 223 230
f 186 201 185
f 378 396 313
f 21 26 15
f 59 90 439
f 836 837 832
f 159 786 142
f 152 181 169
f 169 181 186
f 201 197 225
f 76 93 82
f 331 204 189
f 349 766 755
f 486 26 502
f 38 45 64
f 94 117 93
f 117 122 110
f 160 181 152
f 186 197 201
f 225 229 232
f 230 244 12
f 38 24 45
f 214 229 225
f 230 231 212
f 167 195 191
f 137 160 142
f 160 152 142
f 214 225 197
f 22 32 21
f 186 181 197
f 55 82 49
f 76 94 93
f 472 157 187
f 482 488 777
f 24 39 45
f 43 55 49
f 24 35 29
f 60 513 32
f 33 60 32
f 129 429 157
f 552 597 462
f 160 153 181
f 181 153 197
f 197 198 214
f 229 436 183
f 353 357 579
f 22 33 32
f 419 498 314
f 101 153 137
f 153 160 137
f 198 206 214
f 206 229 214
f 101 143 153
f 206 90 229
f 237 13 18
f 61 101 78
f 211 222 458
f 22 27 33
f 61 96 101
f 197 153 198
f 230 12 231
f 161 192 153
f 192 198 153
f 198 207 206
f 361 338 400
f 27 61 33
f 101 138 143
f 143 161 153
f 193 198 192
f 193 207 198
f 207 41 206
f 90 59 229
f 106 107 132
f 96 138 101
f 208 207 193
f 208 41 207
f 41 90 206
f 107 139 132
f 103 156 346
f 441 425 539
f 27 52 61
f 72 96 61
f 161 143 138
f 231 12 174
f 52 72 61
f 161 162 192
f 30 75 13
f 75 280 332
f 342 184 430
f 162 161 138
f 162 193 192
f 189 212 211
f 35 24 38
f 174 92 227
f 157 429 124
f 176 200 193
f 341 397 339
f 131 162 138
f 200 208 193
f 118 117 94
f 72 89 96
f 89 138 96
f 89 131 138
f 131 176 162
f 162 176 193
f 209 41 208
f 139 148 155
f 514 89 72
f 200 209 208
f 429 213 91
f 826 835 356
f 3 41 209
f 3 90 41
f 148 167 155
f 134 3 209
f 3 439 90
f 189 204 212
f 46 506 44
f 122 117 31
f 202 209 200
f 3 86 439
f 81 80 64
f 106 85 107
f 231 174 222
f 34 44 28
f 46 62 506
f 378 386 396
f 332 280 273
f 212 231 222
f 29 34 28
f 34 46 44
f 209 202 215
f 102 116 107
f 107 148 139
f 6 108 124
f 215 134 209
f 105 643 834
f 187 471 468
f 723 716 699
f 34 38 46
f 597 552 463
f 124 92 6
f 468 471 457
f 550 558 549
f 411 831 249
f 134 86 3
f 647 536 554
f 92 174 6
f 148 116 163
f 189 211 458
f 34 35 38
f 38 47 46
f 47 62 46
f 62 47 73
f 187 157 112
f 172 147 173
f 173 154 172
f 163 167 148
f 157 124 108
f 390 418 414
f 182 172 154
f 182 474 172
f 736 738 737
f 81 85 80
f 76 82 55
f 102 107 85
f 97 115 147
f 115 154 147
f 154 173 147
f 182 151 474
f 441 394 461
f 187 112 471
f 354 359 349
f 117 110 93
f 47 38 53
f 115 144 154
f 87 108 6
f 216 227 215
f 227 134 215
f 429 91 86
f 230 327 244
f 38 63 53
f 97 106 115
f 429 86 124
f 81 64 45
f 167 144 155
f 112 157 108
f 226 227 216
f 92 86 134
f 115 132 144
f 144 182 154
f 227 92 134
f 106 132 115
f 191 182 144
f 195 151 182
f 98 216 151
f 92 124 86
f 95 118 94
f 182 191 195
f 702 399 648
f 386 448 396
f 38 64 63
f 63 80 83
f 83 85 106
f 538 693 826
f 63 64 80
f 80 85 83
f 132 139 144
f 139 155 144
f 171 121 385
f 18 13 501
f 65 102 85
f 643 663 834
f 311 180 414
f 487 27 16
f 30 237 259
f 65 305 102
f 338 274 326
f 54 179 150
f 449 103 634
f 500 510 568
f 282 297 281
f 287 272 259
f 594 593 701
f 177 264 179
f 179 306 150
f 287 259 271
f 150 306 248
f 291 264 177
f 179 264 306
f 298 95 284
f 296 104 307
f 244 5 12
f 319 177 276
f 298 123 118
f 291 177 319
f 76 284 95
f 290 318 353
f 267 284 266
f 233 319 789
f 291 306 264
f 306 304 248
f 265 260 247
f 379 368 360
f 291 270 306
f 270 304 306
f 275 294 283
f 316 248 304
f 223 320 230
f 257 270 291
f 251 21 15
f 16 21 251
f 699 716 575
f 204 320 223
f 305 65 297
f 277 19 165
f 586 584 829
f 319 232 291
f 282 281 39
f 87 6 5
f 5 6 12
f 299 316 304
f 316 67 248
f 411 268 279
f 232 257 291
f 300 304 270
f 300 299 304
f 299 67 316
f 786 137 142
f 22 21 16
f 310 302 287
f 430 322 342
f 257 300 270
f 269 331 312
f 277 310 19
f 257 295 300
f 333 189 145
f 258 82 265
f 307 228 327
f 305 312 325
f 183 257 232
f 257 183 295
f 67 299 288
f 294 309 297
f 223 212 204
f 252 318 280
f 553 324 539
f 297 309 308
f 347 355 354
f 486 15 26
f 269 204 331
f 199 302 7
f 320 335 334
f 180 329 467
f 294 301 309
f 317 305 325
f 831 670 249
f 163 145 167
f 308 309 321
f 335 320 269
f 310 287 19
f 334 327 230
f 321 269 312
f 183 285 295
f 295 330 300
f 260 275 283
f 307 104 228
f 333 145 163
f 335 307 334
f 342 237 18
f 82 275 265
f 328 111 296
f 308 321 312
f 285 330 295
f 14 253 24
f 750 344 348
f 252 280 272
f 165 19 268
f 335 269 321
f 312 331 325
f 23 491 825
f 285 183 436
f 110 111 301
f 317 325 116
f 298 313 123
f 334 307 327
f 265 275 260
f 93 301 82
f 268 19 293
f 165 249 277
f 653 671 637
f 302 272 287
f 467 635 416
f 43 266 55
f 245 29 28
f 345 360 344
f 293 287 271
f 606 611 603
f 579 435 353
f 19 287 293
f 12 6 174
f 252 272 302
f 365 292 284
f 117 118 123
f 342 322 274
f 274 322 326
f 246 29 245
f 736 737 735
f 465 11 451
f 290 456 273
f 328 335 321
f 325 163 116
f 122 111 110
f 373 386 378
f 328 321 309
f 267 365 284
f 361 399 422
f 292 298 284
f 301 328 309
f 274 237 342
f 274 259 237
f 793 814 787
f 333 163 325
f 256 583 528
f 301 111 328
f 253 260 39
f 233 232 319
f 338 326 400
f 561 566 677
f 281 297 65
f 317 116 102
f 303 290 273
f 318 303 280
f 289 259 274
f 280 75 30
f 265 247 254
f 763 770 745
f 180 311 103
f 283 294 297
f 247 260 253
f 554 561 677
f 354 373 359
f 354 349 347
f 14 247 253
f 328 296 335
f 272 30 259
f 94 76 95
f 335 296 307
f 284 76 266
f 271 289 274
f 30 13 237
f 418 140 414
f 271 274 279
f 140 311 414
f 260 283 39
f 283 282 39
f 39 281 40
f 271 259 289
f 40 281 65
f 246 24 29
f 283 297 282
f 269 320 204
f 262 709 277
f 279 268 271
f 93 110 301
f 308 312 305
f 338 411 279
f 578 352 371
f 33 78 60
f 29 35 34
f 297 308 305
f 95 298 118
f 82 301 294
f 49 82 258
f 310 7 302
f 102 305 317
f 331 333 325
f 82 294 275
f 272 280 30
f 303 273 280
f 303 318 290
f 268 293 271
f 334 230 320
f 332 37 75
f 222 226 216
f 584 381 829
f 121 171 617
f 356 381 149
f 356 149 372
f 371 48 149
f 450 84 339
f 15 484 403
f 775 802 794
f 637 555 544
f 397 517 410
f 387 388 383
f 539 351 473
f 351 158 473
f 552 1 463
f 831 422 399
f 606 447 617
f 835 381 356
f 549 520 546
f 252 199 353
f 829 693 586
f 391 393 413
f 385 351 409
f 387 383 379
f 558 513 557
f 837 836 833
f 371 278 48
f 639 640 756
f 419 413 721
f 311 315 634
f 413 314 418
f 351 539 409
f 135 210 170
f 406 113 17
f 644 632 655
f 830 578 337
f 413 418 391
f 670 262 277
f 314 140 418
f 508 517 397
f 410 455 552
f 623 290 435
f 235 370 133
f 27 22 16
f 324 441 539
f 368 382 367
f 372 149 10
f 617 190 614
f 438 79 465
f 611 617 614
f 597 442 394
f 391 390 694
f 247 243 254
f 779 254 243
f 496 546 500
f 368 367 360
f 232 229 183
f 606 617 611
f 388 391 383
f 441 462 616
f 419 314 413
f 254 258 265
f 384 628 734
f 694 676 382
f 633 256 528
f 700 717 723
f 254 779 258
f 518 511 519
f 360 367 344
f 391 418 390
f 361 422 338
f 699 700 723
f 504 500 546
f 8 385 409
f 350 363 345
f 388 401 393
f 337 371 381
f 420 410 552
f 455 1 552
f 279 274 338
f 357 353 199
f 817 825 823
f 550 549 492
f 671 555 637
f 383 694 382
f 401 413 393
f 350 345 658
f 337 578 371
f 462 597 616
f 329 111 122
f 379 383 368
f 149 381 371
f 584 337 381
f 508 341 84
f 363 360 345
f 832 826 356
f 311 634 103
f 738 739 741
f 346 296 111
f 346 104 296
f 658 660 350
f 368 383 382
f 390 622 694
f 420 462 441
f 383 391 694
f 324 420 441
f 326 299 300
f 373 378 365
f 388 393 391
f 299 322 288
f 329 346 111
f 346 156 104
f 130 256 731
f 331 189 333
f 199 7 408
f 85 81 65
f 353 318 252
f 357 529 579
f 400 326 300
f 292 378 298
f 359 373 365
f 616 597 394
f 723 731 602
f 299 326 322
f 298 378 313
f 369 360 363
f 349 359 365
f 32 558 502
f 731 256 610
f 365 378 292
f 180 346 329
f 70 194 51
f 612 837 833
f 431 438 451
f 10 51 105
f 33 61 78
f 426 278 352
f 426 433 278
f 113 361 440
f 448 404 396
f 248 67 68
f 448 657 404
f 68 428 77
f 48 464 10
f 657 454 404
f 454 466 404
f 404 466 123
f 466 31 123
f 194 434 437
f 459 466 454
f 466 459 31
f 459 122 31
f 329 122 459
f 158 385 210
f 467 459 454
f 635 467 454
f 459 467 329
f 617 447 507
f 170 210 385
f 121 170 385
f 656 618 583
f 75 178 13
f 68 67 288
f 833 836 663
f 352 607 426
f 136 434 70
f 756 376 639
f 546 520 504
f 463 437 556
f 463 432 437
f 71 436 59
f 430 175 68
f 432 463 1
f 129 224 429
f 451 11 136
f 460 88 446
f 433 451 205
f 68 175 428
f 205 70 464
f 339 203 158
f 17 224 2
f 547 486 550
f 442 463 556
f 395 535 438
f 437 88 194
f 440 224 17
f 278 371 352
f 330 285 71
f 428 219 126
f 20 446 184
f 175 88 428
f 645 427 426
f 440 71 69
f 203 397 553
f 446 175 184
f 440 69 224
f 20 342 18
f 88 432 1
f 136 475 434
f 20 184 342
f 440 400 71
f 222 174 227
f 69 71 59
f 323 410 420
f 460 446 526
f 484 547 478
f 734 609 286
f 77 428 126
f 440 361 400
f 149 48 10
f 103 452 156
f 435 290 353
f 141 452 103
f 560 465 79
f 427 433 426
f 446 88 175
f 442 597 463
f 452 36 156
f 88 1 428
f 411 422 831
f 71 285 436
f 244 327 228
f 128 244 228
f 178 75 37
f 428 1 219
f 194 88 460
f 128 228 36
f 492 533 485
f 194 460 51
f 36 452 128
f 141 449 452
f 451 136 205
f 69 59 439
f 113 440 17
f 400 300 330
f 224 129 2
f 492 549 533
f 28 23 245
f 184 175 430
f 56 244 128
f 113 654 361
f 526 446 20
f 557 520 549
f 452 470 128
f 56 87 244
f 244 87 5
f 77 126 68
f 449 457 452
f 470 56 128
f 151 195 98
f 213 224 69
f 458 222 98
f 452 457 470
f 84 341 339
f 431 395 438
f 548 496 500
f 205 136 70
f 37 332 273
f 549 558 557
f 457 471 470
f 112 87 56
f 456 178 37
f 470 471 56
f 158 203 473
f 723 602 716
f 59 436 229
f 645 395 427
f 112 108 87
f 104 156 36
f 441 461 425
f 471 112 56
f 433 205 464
f 576 699 575
f 486 547 484
f 506 27 497
f 52 506 514
f 671 563 692
f 480 25 4
f 97 83 106
f 166 176 131
f 513 78 100
f 475 136 11
f 176 474 200
f 836 834 663
f 288 322 430
f 513 60 78
f 172 474 176
f 131 522 166
f 408 7 709
f 475 465 340
f 66 42 516
f 661 480 4
f 239 146 255
f 514 73 89
f 131 89 522
f 63 83 97
f 519 520 99
f 15 486 484
f 178 501 13
f 147 172 166
f 216 215 202
f 834 832 372
f 202 200 474
f 670 277 249
f 547 492 478
f 520 100 99
f 475 340 540
f 509 126 219
f 168 512 217
f 398 832 453
f 449 574 457
f 465 475 11
f 503 74 515
f 62 73 514
f 505 221 220
f 550 486 502
f 497 27 491
f 492 485 478
f 47 53 73
f 502 558 550
f 97 522 73
f 825 491 487
f 217 499 521
f 97 73 53
f 348 665 664
f 217 512 499
f 503 515 800
f 97 147 522
f 505 494 499
f 164 74 503
f 101 100 78
f 586 565 830
f 16 251 823
f 489 495 488
f 516 42 509
f 586 830 584
f 482 489 488
f 7 310 277
f 74 516 515
f 489 496 548
f 226 222 227
f 699 576 569
f 252 302 199
f 255 146 666
f 147 166 522
f 494 505 220
f 66 516 74
f 249 268 411
f 506 62 514
f 482 496 489
f 196 505 512
f 42 126 509
f 529 199 408
f 557 513 100
f 691 699 569
f 606 521 507
f 483 496 482
f 491 28 497
f 507 494 493
f 172 176 166
f 487 16 825
f 580 592 479
f 497 28 44
f 480 661 262
f 521 606 389
f 521 494 507
f 130 583 256
f 474 216 202
f 509 1 455
f 506 52 27
f 623 456 290
f 511 510 504
f 219 1 509
f 483 490 496
f 376 537 639
f 240 613 612
f 512 505 499
f 114 256 235
f 487 491 27
f 583 130 656
f 89 73 522
f 20 501 526
f 44 506 497
f 504 510 500
f 548 495 489
f 509 455 517
f 474 151 216
f 52 514 72
f 336 188 503
f 494 220 493
f 493 220 358
f 523 515 508
f 516 517 508
f 826 829 835
f 20 18 501
f 114 610 256
f 521 499 494
f 178 9 501
f 515 516 508
f 516 509 517
f 830 682 578
f 567 364 627
f 580 595 636
f 395 645 421
f 677 590 675
f 665 348 344
f 535 395 421
f 545 600 565
f 586 545 565
f 565 600 541
f 541 407 421
f 341 508 397
f 438 535 79
f 600 407 541
f 421 79 535
f 407 79 421
f 517 455 410
f 407 560 79
f 507 447 606
f 527 545 538
f 655 625 598
f 551 639 537
f 590 599 609
f 599 286 609
f 133 734 286
f 443 560 407
f 600 443 407
f 650 601 598
f 571 599 590
f 560 443 465
f 610 286 599
f 37 273 456
f 581 580 636
f 625 650 598
f 114 286 610
f 392 443 600
f 590 677 571
f 571 716 599
f 114 133 286
f 504 520 511
f 195 458 98
f 233 789 221
f 545 392 600
f 493 358 135
f 358 210 135
f 716 602 599
f 599 731 610
f 630 647 554
f 677 566 571
f 599 602 731
f 10 105 372
f 796 812 788
f 398 343 527
f 531 424 536
f 531 544 424
f 571 566 575
f 398 453 343
f 343 545 527
f 392 545 343
f 536 532 531
f 658 735 659
f 571 575 716
f 445 623 4
f 653 640 639
f 443 340 465
f 397 410 323
f 100 520 557
f 566 576 575
f 574 604 650
f 547 550 492
f 358 366 210
f 450 339 158
f 653 637 532
f 637 531 532
f 569 566 561
f 569 576 566
f 549 546 533
f 650 604 589
f 520 519 511
f 339 397 203
f 462 420 552
f 555 569 561
f 604 362 589
f 720 605 239
f 370 120 384
f 553 397 324
f 9 456 445
f 531 637 544
f 324 397 323
f 748 753 763
f 553 539 473
f 453 57 343
f 340 443 392
f 150 68 126
f 612 453 837
f 392 585 340
f 567 615 364
f 444 469 218
f 2 377 405
f 121 135 170
f 612 57 453
f 392 343 57
f 9 178 456
f 534 445 25
f 507 121 617
f 574 650 625
f 9 445 534
f 493 135 121
f 605 236 444
f 657 587 562
f 770 769 745
f 507 493 121
f 618 364 528
f 588 364 618
f 628 621 649
f 490 546 496
f 563 570 572
f 720 593 596
f 605 608 236
f 585 392 57
f 639 551 564
f 608 190 236
f 236 417 444
f 417 469 444
f 8 423 469
f 120 636 652
f 585 540 340
f 708 593 720
f 605 596 608
f 190 417 236
f 370 235 633
f 636 120 581
f 613 57 612
f 495 551 537
f 564 563 559
f 570 577 707
f 593 594 596
f 457 632 468
f 370 633 528
f 461 57 613
f 540 585 57
f 708 707 577
f 141 103 449
f 608 614 190
f 417 171 469
f 171 8 469
f 644 627 364
f 787 814 785
f 495 537 488
f 564 570 563
f 596 611 608
f 394 57 461
f 631 534 127
f 568 570 564
f 596 594 611
f 58 409 50
f 394 540 57
f 526 534 631
f 526 9 534
f 526 501 9
f 475 540 437
f 570 568 577
f 190 171 417
f 539 425 50
f 425 461 613
f 556 540 394
f 500 564 551
f 500 568 564
f 442 556 394
f 548 551 495
f 569 555 691
f 385 8 171
f 409 539 50
f 188 164 503
f 500 551 548
f 608 611 614
f 8 409 58
f 607 645 426
f 618 528 583
f 652 636 595
f 578 682 607
f 352 578 607
f 555 561 544
f 479 415 580
f 642 498 479
f 390 416 562
f 562 622 390
f 642 140 314
f 315 140 642
f 746 748 763
f 401 388 696
f 589 362 592
f 479 498 415
f 604 634 362
f 449 604 574
f 562 624 622
f 682 645 607
f 558 32 513
f 812 816 788
f 592 362 479
f 563 671 559
f 362 642 479
f 120 652 384
f 472 632 644
f 624 587 622
f 785 814 806
f 374 646 386
f 250 234 567
f 644 655 627
f 105 51 460
f 631 105 460
f 580 415 595
f 574 625 632
f 785 806 776
f 785 776 772
f 598 250 627
f 693 538 586
f 460 526 631
f 631 641 105
f 621 628 384
f 127 641 631
f 641 643 105
f 554 651 630
f 544 561 424
f 2 588 377
f 528 364 615
f 652 595 384
f 655 598 627
f 627 250 567
f 347 664 355
f 641 648 643
f 581 120 234
f 682 830 565
f 416 635 562
f 347 348 664
f 601 250 598
f 648 688 643
f 629 582 638
f 399 702 831
f 657 448 587
f 268 249 165
f 709 529 408
f 702 648 641
f 377 588 618
f 626 377 618
f 524 589 592
f 632 625 655
f 543 582 119
f 582 629 119
f 457 574 632
f 384 734 133
f 620 621 595
f 2 405 17
f 399 654 688
f 314 498 642
f 621 384 595
f 635 454 657
f 588 644 364
f 361 654 399
f 654 406 543
f 688 654 543
f 129 472 644
f 587 386 646
f 129 644 588
f 472 468 632
f 587 448 386
f 113 406 654
f 406 542 543
f 543 542 582
f 129 588 2
f 634 315 362
f 804 221 789
f 702 641 242
f 63 97 53
f 542 619 582
f 619 638 582
f 618 656 626
f 31 117 123
f 406 405 542
f 449 634 604
f 370 384 133
f 650 589 601
f 776 806 801
f 405 377 626
f 601 589 524
f 424 561 554
f 362 315 642
f 619 656 638
f 635 657 562
f 626 542 405
f 626 619 542
f 639 564 559
f 587 624 562
f 406 17 405
f 445 456 623
f 801 806 805
f 623 435 579
f 98 222 216
f 415 498 721
f 626 656 619
f 581 592 580
f 444 218 146
f 469 423 218
f 218 423 591
f 26 21 32
f 630 735 647
f 679 481 530
f 481 613 240
f 374 683 646
f 671 639 559
f 718 719 710
f 720 239 724
f 355 683 374
f 683 622 587
f 704 261 629
f 238 525 666
f 355 676 683
f 676 694 683
f 240 833 663
f 579 4 623
f 234 615 567
f 683 694 622
f 58 530 423
f 119 663 688
f 679 613 481
f 119 688 543
f 665 355 664
f 689 691 555
f 691 689 700
f 238 666 704
f 707 710 572
f 370 615 120
f 370 528 615
f 732 525 238
f 724 239 730
f 719 726 728
f 348 347 750
f 656 704 638
f 239 444 146
f 665 367 355
f 355 367 676
f 638 704 629
f 423 530 591
f 480 262 702
f 596 605 720
f 670 702 262
f 708 710 707
f 399 688 648
f 806 814 809
f 388 387 696
f 530 481 591
f 572 710 698
f 719 728 717
f 572 692 563
f 724 730 726
f 401 696 413
f 146 591 261
f 696 721 413
f 595 415 620
f 130 238 656
f 692 698 689
f 680 387 379
f 379 369 680
f 696 705 721
f 705 711 721
f 689 698 700
f 817 823 814
f 261 591 629
f 369 673 680
f 437 540 556
f 398 527 538
f 680 696 387
f 692 689 555
f 728 130 723
f 721 498 419
f 671 692 555
f 710 719 698
f 708 718 710
f 350 672 363
f 363 672 369
f 369 672 673
f 620 415 721
f 133 114 235
f 587 646 683
f 753 764 775
f 724 726 718
f 673 684 680
f 684 696 680
f 653 639 671
f 8 58 423
f 706 711 705
f 727 620 721
f 350 667 672
f 672 667 673
f 696 690 705
f 696 684 690
f 705 690 706
f 711 727 721
f 350 662 667
f 690 703 706
f 698 717 700
f 534 25 127
f 706 712 711
f 711 712 727
f 360 369 379
f 679 50 613
f 673 681 684
f 666 146 261
f 723 130 731
f 7 277 709
f 350 660 662
f 667 681 673
f 250 524 581
f 250 601 524
f 242 127 25
f 667 669 681
f 681 690 684
f 729 620 727
f 685 703 690
f 706 713 712
f 744 640 653
f 681 685 690
f 581 524 592
f 712 729 727
f 242 25 480
f 344 367 665
f 730 732 726
f 658 659 660
f 695 706 703
f 706 695 713
f 712 713 729
f 649 620 729
f 234 250 581
f 681 686 685
f 669 686 681
f 713 649 729
f 728 732 130
f 481 240 663
f 669 668 686
f 686 695 685
f 685 695 703
f 698 719 717
f 662 668 667
f 667 668 669
f 668 674 686
f 240 612 833
f 572 698 692
f 120 615 234
f 629 591 119
f 695 697 713
f 630 659 735
f 261 704 666
f 660 659 662
f 686 674 695
f 713 725 649
f 732 238 130
f 620 649 621
f 674 697 695
f 697 714 713
f 525 255 666
f 836 832 834
f 659 630 662
f 651 668 662
f 725 628 649
f 146 218 591
f 794 815 793
f 662 630 651
f 713 714 725
f 545 586 538
f 4 25 445
f 815 814 793
f 239 605 444
f 651 674 668
f 255 525 730
f 780 266 43
f 238 704 656
f 541 682 565
f 758 747 749
f 4 579 529
f 651 687 674
f 687 697 674
f 720 724 708
f 239 255 730
f 661 4 529
f 50 679 530
f 425 613 50
f 724 718 708
f 675 687 651
f 697 722 714
f 658 736 735
f 714 722 725
f 367 382 676
f 661 529 241
f 570 707 572
f 726 732 728
f 376 488 537
f 375 536 647
f 554 675 651
f 687 722 697
f 725 722 628
f 477 485 533
f 533 490 477
f 32 502 26
f 554 677 675
f 590 687 675
f 590 722 687
f 336 503 800
f 808 519 99
f 590 609 722
f 722 609 628
f 609 734 628
f 262 241 709
f 730 525 732
f 702 242 480
f 591 481 119
f 717 728 723
f 736 739 738
f 805 806 809
f 242 641 127
f 782 807 798
f 807 811 798
f 807 822 811
f 765 764 747
f 819 245 828
f 773 771 783
f 349 780 766
f 824 825 817
f 775 770 763
f 797 798 811
f 771 779 783
f 220 221 804
f 832 538 826
f 819 828 824
f 832 398 538
f 741 739 746
f 755 751 750
f 751 771 773
f 779 807 782
f 797 811 810
f 754 758 749
f 798 795 782
f 798 797 795
f 764 788 775
f 510 573 568
f 750 751 749
f 702 670 831
f 807 243 14
f 783 779 782
f 758 761 747
f 755 766 751
f 766 771 751
f 766 779 771
f 754 751 762
f 210 450 158
f 243 807 779
f 750 749 344
f 776 801 792
f 763 753 775
f 267 266 780
f 450 210 803
f 748 747 753
f 210 366 803
f 366 799 803
f 14 819 807
f 739 748 746
f 749 739 345
f 803 799 84
f 823 825 16
f 345 736 658
f 799 678 84
f 751 754 749
f 313 396 404
f 746 745 741
f 482 476 483
f 678 523 84
f 746 763 745
f 800 515 523
f 263 389 603
f 389 606 603
f 366 678 799
f 800 523 678
f 347 755 750
f 315 311 140
f 678 336 800
f 733 177 188
f 741 745 743
f 738 741 743
f 733 276 177
f 508 84 523
f 84 450 803
f 761 765 747
f 243 247 14
f 827 403 484
f 802 821 794
f 775 794 770
f 804 678 366
f 804 336 678
f 821 815 794
f 263 715 389
f 788 802 775
f 804 366 358
f 245 23 828
f 715 380 389
f 491 23 28
f 789 336 804
f 593 813 701
f 701 109 715
f 220 804 358
f 819 824 822
f 796 797 810
f 747 764 753
f 813 109 701
f 421 645 541
f 733 336 789
f 267 780 349
f 733 188 336
f 774 777 488
f 708 577 813
f 577 818 813
f 412 389 380
f 412 521 389
f 451 438 465
f 376 756 774
f 813 818 109
f 199 529 357
f 43 779 766
f 109 380 715
f 276 733 789
f 795 764 765
f 577 573 818
f 818 402 109
f 828 23 825
f 795 788 764
f 837 453 832
f 521 412 217
f 478 827 484
f 319 276 789
f 380 402 412
f 782 795 778
f 490 483 477
f 109 402 380
f 258 43 49
f 412 159 217
f 759 756 640
f 744 759 640
f 759 774 756
f 777 476 482
f 573 577 568
f 818 820 402
f 403 251 15
f 476 777 774
f 762 751 773
f 797 788 795
f 573 820 818
f 365 267 349
f 402 808 412
f 778 795 765
f 790 774 759
f 790 476 774
f 519 402 820
f 519 808 402
f 786 159 412
f 258 779 43
f 808 786 412
f 476 477 483
f 485 477 478
f 266 76 55
f 375 744 536
f 536 744 532
f 739 749 747
f 791 790 759
f 744 767 759
f 476 478 477
f 99 786 808
f 647 735 375
f 375 740 744
f 476 827 478
f 781 791 759
f 809 476 790
f 781 759 767
f 100 786 99
f 737 740 375
f 767 744 740
f 760 767 740
f 752 760 740
f 536 424 554
f 594 701 715
f 819 14 246
f 780 43 766
f 737 375 735
f 823 827 476
f 541 645 682
f 813 593 708
f 742 740 737
f 742 757 740
f 757 752 740
f 14 24 246
f 100 101 786
f 823 403 827
f 345 739 736
f 807 819 822
f 767 784 781
f 814 476 809
f 251 403 823
f 344 749 345
f 101 137 786
f 246 245 819
f 745 757 742
f 745 768 757
f 772 767 760
f 349 755 347
f 810 812 796
f 788 816 802
f 769 768 745
f 776 767 772
f 776 784 767
f 742 737 745
f 797 796 788
f 739 747 748
f 823 476 814
f 737 743 745
f 737 738 743
f 828 825 824
f 776 792 784
f 573 510 820
f 510 518 820
f 518 519 820
