# Blender 4.5.11 LTS
# www.blender.org
o test_sword
v 0.001732 -2.034017 0.058875
v -0.116052 -2.034017 0.030091
v -0.001732 -2.034017 -0.058874
v -0.117783 -2.034017 -0.028783
v 0.116052 -2.034017 -0.030091
v 0.117783 -2.034017 0.028783
v 0.117783 -2.034017 0.028783
v 0.169717 -1.869246 0.041474
v 0.001732 -2.034017 0.058875
v 0.002495 -1.869246 0.084833
v 0.001732 -2.034017 0.058875
v 0.002495 -1.869246 0.084833
v -0.116052 -2.034017 0.030091
v -0.167221 -1.869246 0.043359
v -0.116052 -2.034017 0.030091
v -0.167221 -1.869246 0.043359
v -0.117783 -2.034017 -0.028783
v -0.169717 -1.869246 -0.041474
v -0.001732 -2.034017 -0.058874
v -0.002495 -1.869246 -0.084833
v -0.001732 -2.034017 -0.058874
v -0.002495 -1.869246 -0.084833
v 0.116052 -2.034017 -0.030091
v 0.167221 -1.869246 -0.043359
v 0.116052 -2.034017 -0.030091
v 0.167221 -1.869246 -0.043359
v 0.169717 -1.869246 0.041474
v 0.117783 -1.721513 0.028783
v 0.002495 -1.869246 0.084833
v 0.001732 -1.721513 0.058875
v 0.001732 -1.721513 0.058875
v -0.116052 -1.721513 0.030091
v -0.167221 -1.869246 0.043359
v -0.116052 -1.721513 0.030091
v -0.169717 -1.869246 -0.041474
v -0.117783 -1.721513 -0.028783
v -0.002495 -1.869246 -0.084833
v -0.001732 -1.721513 -0.058874
v -0.001732 -1.721513 -0.058874
v 0.116052 -1.721513 -0.030091
v 0.167221 -1.869246 -0.043359
v 0.116052 -1.721513 -0.030091
v 0.117783 -1.721513 0.028783
v 0.117783 -0.923015 0.028783
v 0.001732 -1.721513 0.058875
v 0.001732 -0.923015 0.058875
v 0.001732 -1.721513 0.058875
v 0.001732 -0.923015 0.058875
v -0.116052 -1.721513 0.030091
v -0.116052 -0.923015 0.030091
v -0.116052 -1.721513 0.030091
v -0.116052 -0.923015 0.030091
v -0.117783 -1.721513 -0.028783
v -0.117783 -0.923015 -0.028783
v -0.001732 -1.721513 -0.058874
v -0.001732 -0.923015 -0.058874
v -0.001732 -1.721513 -0.058874
v -0.001732 -0.923015 -0.058874
v 0.116052 -1.721513 -0.030091
v 0.116052 -0.923015 -0.030091
v 0.116052 -1.721513 -0.030091
v 0.116052 -0.923015 -0.030091
v 0.117783 -0.923015 0.028783
v 0.169717 -0.836777 0.041474
v 0.001732 -0.923015 0.058875
v 0.002495 -0.836777 0.084833
v 0.001732 -0.923015 0.058875
v 0.002495 -0.836777 0.084833
v -0.116052 -0.923015 0.030091
v -0.167221 -0.836777 0.043359
v -0.116052 -0.923015 0.030091
v -0.167221 -0.836777 0.043359
v -0.117783 -0.923015 -0.028783
v -0.169717 -0.836777 -0.041474
v -0.001732 -0.923015 -0.058874
v -0.002495 -0.836777 -0.084833
v -0.001732 -0.923015 -0.058874
v -0.002495 -0.836777 -0.084833
v 0.116052 -0.923015 -0.030091
v 0.167221 -0.836777 -0.043359
v 0.116052 -0.923015 -0.030091
v 0.167221 -0.836777 -0.043359
v 0.083013 -0.609628 0.048826
v 0.240796 -0.650342 0.041077
v 0.168469 -0.650342 -0.000942
v 0.082204 -0.468029 0.021328
v 0.083013 -0.609628 0.048826
v 0.168469 -0.508743 -0.000942
v 0.168469 -0.650342 -0.000942
v 0.169717 -0.836777 0.041474
v 0.083013 -0.609628 0.048826
v 0.002495 -0.836777 0.084833
v 0.001450 -0.609628 0.049282
v -0.080114 -0.609628 0.049738
v -0.168469 -0.650342 0.000942
v -0.238302 -0.650342 0.043757
v -0.080922 -0.468029 0.022240
v -0.080114 -0.609628 0.049738
v 0.000641 -0.468029 0.021784
v 0.001450 -0.609628 0.049282
v -0.083013 -0.609628 -0.048825
v -0.240796 -0.650342 -0.041076
v -0.082204 -0.468029 -0.021328
v -0.083013 -0.609628 -0.048825
v -0.168469 -0.508743 0.000942
v -0.168469 -0.650342 0.000942
v -0.169717 -0.836777 -0.041474
v -0.083013 -0.609628 -0.048825
v -0.002495 -0.836777 -0.084833
v -0.001450 -0.609628 -0.049281
v 0.080114 -0.609628 -0.049738
v 0.238302 -0.650342 -0.043756
v 0.080922 -0.468029 -0.022240
v 0.080114 -0.609628 -0.049738
v -0.000641 -0.468029 -0.021784
v -0.001450 -0.609628 -0.049281
v 0.240796 -0.836777 0.041077
v 0.240796 -0.650342 0.041077
v 0.080114 -0.609628 -0.049738
v 0.238302 -0.650342 -0.043756
v 0.167221 -0.836777 -0.043359
v 0.238302 -0.836777 -0.043756
v 0.167221 -0.836777 -0.043359
v 0.238302 -0.836777 -0.043756
v 0.169717 -0.836777 0.041474
v 0.240796 -0.836777 0.041077
v -0.240796 -0.836777 -0.041076
v -0.240796 -0.650342 -0.041076
v -0.080114 -0.609628 0.049738
v -0.238302 -0.650342 0.043757
v -0.167221 -0.836777 0.043359
v -0.238302 -0.836777 0.043757
v -0.167221 -0.836777 0.043359
v -0.238302 -0.836777 0.043757
v -0.169717 -0.836777 -0.041474
v -0.240796 -0.836777 -0.041076
v 0.524409 -0.637495 -0.023636
v 0.525626 -0.637495 0.017763
v 0.525626 -0.637495 0.017763
v 0.525626 -0.544648 0.017763
v 0.525626 -0.544648 0.017763
v 0.524409 -0.544648 -0.023636
v 0.524409 -0.544648 -0.023636
v 0.524409 -0.637495 -0.023636
v -0.524409 -0.637495 0.023636
v -0.525626 -0.637495 -0.017762
v -0.525626 -0.637495 -0.017762
v -0.525626 -0.544648 -0.017762
v -0.525626 -0.544648 -0.017762
v -0.524409 -0.544648 0.023636
v -0.524409 -0.544648 0.023636
v -0.524409 -0.637495 0.023636
v 0.658843 -0.416457 -0.014120
v 0.658843 -0.472163 -0.014120
v 0.524409 -0.637495 -0.023636
v 0.658843 -0.472163 -0.014120
v 0.525626 -0.637495 0.017763
v 0.659456 -0.472163 0.006745
v 0.659456 -0.472163 0.006745
v 0.659456 -0.416457 0.006745
v 0.659456 -0.416457 0.006745
v 0.658843 -0.416457 -0.014120
v 0.658843 -0.416457 -0.014120
v 0.659456 -0.416457 0.006745
v 0.658843 -0.472163 -0.014120
v 0.659456 -0.472163 0.006745
v -0.658843 -0.416457 0.014120
v -0.658843 -0.472163 0.014120
v -0.524409 -0.637495 0.023636
v -0.658843 -0.472163 0.014120
v -0.525626 -0.637495 -0.017762
v -0.659456 -0.472163 -0.006745
v -0.659456 -0.472163 -0.006745
v -0.659456 -0.416457 -0.006745
v -0.659456 -0.416457 -0.006745
v -0.658843 -0.416457 0.014120
v -0.658843 -0.416457 0.014120
v -0.659456 -0.416457 -0.006745
v -0.658843 -0.472163 0.014120
v -0.659456 -0.472163 -0.006745
v 0.168469 -0.508743 -0.000942
v 0.168469 -0.650342 -0.000942
v -0.168469 -0.508743 0.000942
v -0.168469 -0.650342 0.000942
v 0.082204 -0.468029 0.021328
v 0.083013 -0.609628 0.048826
v -0.082204 -0.468029 -0.021328
v -0.083013 -0.609628 -0.048825
v 0.131493 2.461073 -0.000736
v 0.168469 2.138067 -0.000943
v 0.020759 2.507658 -0.010553
v 0.040461 2.037480 -0.011120
v -0.131493 2.461073 0.000735
v -0.168469 2.138067 0.000942
v -0.020759 2.507658 0.010553
v -0.040461 2.037480 0.011120
v 0.143199 0.316487 -0.000801
v 0.068784 0.357201 -0.018904
v 0.069873 0.357201 0.018128
v 0.143199 0.316487 -0.000801
v 0.000545 0.359494 0.018516
v 0.069873 0.357201 0.018128
v -0.068784 0.357201 0.018904
v -0.143199 0.316487 0.000801
v -0.069873 0.357201 -0.018128
v -0.143199 0.316487 0.000801
v -0.000545 0.359494 -0.018516
v -0.069873 0.357201 -0.018128
v 0.168469 1.057016 -0.000942
v 0.080922 1.097730 -0.022240
v 0.082204 1.097730 0.021328
v 0.168469 1.057016 -0.000942
v 0.000641 1.101170 0.021784
v 0.082204 1.097730 0.021328
v -0.080922 1.097730 0.022240
v -0.168469 1.057016 0.000942
v -0.082204 1.097730 -0.021328
v -0.168469 1.057016 0.000942
v -0.000641 1.101170 -0.021784
v -0.082204 1.097730 -0.021328
v 0.041102 2.037480 0.010664
v 0.168469 2.138067 -0.000943
v 0.041102 2.037480 0.010664
v -0.041102 2.037480 -0.010664
v -0.168469 2.138067 0.000942
v -0.041102 2.037480 -0.010664
v 0.000000 2.977239 -0.000000
v -0.094519 2.784068 0.000528
v 0.000000 2.977239 -0.000000
v 0.094519 2.784068 -0.000529
v 0.021373 2.507658 0.010317
v -0.021373 2.507658 -0.010318
v -0.131493 2.461073 0.000735
v -0.094519 2.784068 0.000528
v 0.131493 2.461073 -0.000736
v 0.094519 2.784068 -0.000529
v 0.168469 2.138067 -0.000943
v -0.168469 2.138067 0.000942
s 0
f 1 2 3
f 2 4 3
f 3 5 1
f 5 6 1
f 7 8 9
f 8 10 9
f 11 12 13
f 12 14 13
f 15 16 17
f 16 18 17
f 17 18 19
f 18 20 19
f 21 22 23
f 22 24 23
f 25 26 7
f 26 8 7
f 27 28 29
f 28 30 29
f 12 31 14
f 31 32 14
f 33 34 35
f 34 36 35
f 35 36 37
f 36 38 37
f 22 39 24
f 39 40 24
f 41 42 27
f 42 28 27
f 43 44 45
f 44 46 45
f 47 48 49
f 48 50 49
f 51 52 53
f 52 54 53
f 53 54 55
f 54 56 55
f 57 58 59
f 58 60 59
f 61 62 43
f 62 44 43
f 63 64 65
f 64 66 65
f 67 68 69
f 68 70 69
f 71 72 73
f 72 74 73
f 73 74 75
f 74 76 75
f 77 78 79
f 78 80 79
f 81 82 63
f 82 64 63
f 83 84 85
f 86 87 88
f 87 89 88
f 90 91 92
f 91 93 92
f 94 95 96
f 97 98 99
f 98 100 99
f 101 102 95
f 103 104 105
f 104 106 105
f 107 108 109
f 108 110 109
f 111 85 112
f 113 114 115
f 114 116 115
f 90 117 91
f 117 118 91
f 119 120 121
f 120 122 121
f 112 85 84
f 123 124 125
f 124 126 125
f 107 127 108
f 127 128 108
f 129 130 131
f 130 132 131
f 96 95 102
f 133 134 135
f 134 136 135
f 124 137 126
f 137 138 126
f 117 139 118
f 139 140 118
f 84 141 112
f 141 142 112
f 120 143 122
f 143 144 122
f 134 145 136
f 145 146 136
f 127 147 128
f 147 148 128
f 102 149 96
f 149 150 96
f 130 151 132
f 151 152 132
f 143 153 144
f 153 154 144
f 155 156 157
f 156 158 157
f 139 159 140
f 159 160 140
f 141 161 142
f 161 162 142
f 163 164 165
f 164 166 165
f 151 167 152
f 167 168 152
f 169 170 171
f 170 172 171
f 147 173 148
f 173 174 148
f 149 175 150
f 175 176 150
f 177 178 179
f 178 180 179
f 181 182 113
f 182 114 113
f 183 184 97
f 184 98 97
f 99 100 185
f 100 186 185
f 92 93 131
f 93 129 131
f 115 116 187
f 116 188 187
f 109 110 121
f 110 119 121
f 189 190 191
f 190 192 191
f 193 194 195
f 194 196 195
f 197 181 198
f 181 113 198
f 199 86 200
f 86 88 200
f 201 99 202
f 99 185 202
f 203 97 201
f 97 99 201
f 204 183 203
f 183 97 203
f 205 103 206
f 103 105 206
f 207 115 208
f 115 187 208
f 198 113 207
f 113 115 207
f 209 197 210
f 197 198 210
f 211 199 212
f 199 200 212
f 213 201 214
f 201 202 214
f 215 203 213
f 203 201 213
f 216 204 215
f 204 203 215
f 217 205 218
f 205 206 218
f 219 207 220
f 207 208 220
f 210 198 219
f 198 207 219
f 190 209 192
f 209 210 192
f 221 211 222
f 211 212 222
f 214 223 213
f 213 223 196
f 215 213 196
f 194 216 196
f 216 215 196
f 224 217 225
f 217 218 225
f 220 226 219
f 219 226 192
f 210 219 192
f 195 227 193
f 227 228 193
f 191 229 189
f 229 230 189
f 227 195 231
f 229 191 232
f 233 234 232
f 234 229 232
f 235 236 231
f 236 227 231
f 195 196 231
f 196 223 231
f 231 223 235
f 223 237 235
f 191 192 232
f 192 226 232
f 232 226 233
f 226 238 233
